<?xml version="1.0" ?><!DOCTYPE svg  PUBLIC '-//W3C//DTD SVG 1.1 Tiny//EN'  'http://www.w3.org/Graphics/SVG/1.1/DTD/svg11-tiny.dtd'><svg baseProfile="tiny" height="32px" version="1.1" viewBox="0 0 32 32" width="32px" xml:space="preserve" xmlns="http://www.w3.org/2000/svg" xmlns:xlink="http://www.w3.org/1999/xlink"><g id="Guides__x26__Forms"/><g id="Icons"><g><path d="M16,5.033c-4.978,0.037-9,4.079-9,9.063c0,2.429,1.036,4.779,2.559,6.427l6.443,6.443l6.419-6.421    C23.956,18.897,25,16.538,25,14.096C24.999,9.113,20.977,5.07,16,5.033z M20.98,19.159l-4.978,4.979l-4.999-4.999    C9.748,17.766,9,15.884,9,14.096c0-3.861,3.139-7.026,7-7.062c3.86,0.036,6.999,3.202,7,7.062    C23,15.897,22.245,17.787,20.98,19.159z"/><path d="M16,9.967c-2.246,0-4.067,1.821-4.067,4.067c0,2.246,1.821,4.067,4.067,4.067s4.067-1.821,4.067-4.067    C20.067,11.787,18.246,9.967,16,9.967z M16,16.1c-1.14,0-2.067-0.927-2.067-2.067c0-1.14,0.927-2.067,2.067-2.067    c1.14,0,2.067,0.927,2.067,2.067C18.067,15.173,17.14,16.1,16,16.1z"/></g></g></svg>