<?xml version="1.0" encoding="UTF-8" standalone="no"?><!DOCTYPE svg PUBLIC "-//W3C//DTD SVG 1.1//EN" "http://www.w3.org/Graphics/SVG/1.1/DTD/svg11.dtd"><svg width="100%" height="100%" viewBox="0 0 20 20" version="1.1" xmlns="http://www.w3.org/2000/svg" xmlns:xlink="http://www.w3.org/1999/xlink" xml:space="preserve" xmlns:serif="http://www.serif.com/" style="fill-rule:evenodd;clip-rule:evenodd;stroke-linejoin:round;stroke-miterlimit:1.41421;"><path id="Icons" d="M20,18.331l-5.138,-5.138c1.032,-1.377 1.65,-3.083 1.65,-4.937c0,-4.56 -3.696,-8.256 -8.256,-8.256c-4.56,0 -8.256,3.696 -8.256,8.256c0,4.56 3.696,8.256 8.256,8.256c1.854,0 3.56,-0.619 4.937,-1.65l5.138,5.138l1.669,-1.669Zm-17.641,-10.076c0,-3.252 2.645,-5.897 5.897,-5.897c3.252,0 5.897,2.645 5.897,5.897c0,3.252 -2.645,5.897 -5.897,5.897c-3.252,0 -5.897,-2.645 -5.897,-5.897Z" style="fill-rule:nonzero;"/></svg>