<svg viewBox="0 0 100 62" xmlns="http://www.w3.org/2000/svg" fill-rule="evenodd" clip-rule="evenodd" stroke-linejoin="round" stroke-miterlimit="1.414"><path fill="none" d="M0 0h99.9v61.1H0z"/><clipPath id="a"><path d="M0 0h99.9v61.1H0z"/></clipPath><g clip-path="url(#a)"><path d="M19.353 8.41c0-4.644-3.746-8.41-8.366-8.41-4.62 0-8.365 3.766-8.365 8.41 0 4.642 3.745 8.406 8.365 8.406s8.366-3.763 8.366-8.407m1.413 24.434S.116 60.966 0 61.148h99.94c-.01-.01-.017-.017-.024-.03l-34.11-46.434s-4.043-5.504-8.084 0L36.614 43.42 28.85 32.844s-4.043-5.503-8.084 0z" fill="#939393" fill-rule="nonzero"/></g></svg>